<?xml version="1.0" encoding="utf-8"?>
<svg xmlns="http://www.w3.org/2000/svg" style="margin: auto; background: rgb(241, 242, 243); display: block; shape-rendering: auto;" width="280" height="250" preserveAspectRatio="xMidYMid">
<style type="text/css">
  text {
    text-anchor: middle; font-size: 38px; opacity: 0;
  }
</style>
<g style="transform-origin: 140px 125px; transform: scale(0.475);">
<g transform="translate(140,125)">
  <g transform="translate(0,0)"><g class="path" style="transform: rotate(0deg); transform-origin: -217.84px -7.6928px; animation: 1.33333s linear -0.817143s infinite normal forwards running spin-9300ba11-1e16-4dfa-9581-be6797ee8f8c;"><path d="M44.64 0L44.64-42.80L30.08 0L25.20 0L10.72-42.80L10.72 0L6.24 0L6.24-56L10.72-56L27.60-6.88L44.64-56L49.12-56L49.12 0L44.64 0" fill="#15212b" stroke="none" stroke-width="none" transform="translate(-245.52001953125,20.307200927734375)" style="fill: rgb(21, 33, 43);"></path></g><g class="path" style="transform: rotate(0deg); transform-origin: -181.08px -33.8128px; animation: 1.33333s linear -0.754286s infinite normal forwards running spin-9300ba11-1e16-4dfa-9581-be6797ee8f8c;"><path d="M64.48-51.44L64.48-51.44Q63.44-51.44 62.60-52.28L62.60-52.28L62.60-52.28Q61.76-53.12 61.76-54.16L61.76-54.16L61.76-54.16Q61.76-55.20 62.56-56L62.56-56L62.56-56Q63.36-56.80 64.48-56.80L64.48-56.80L64.48-56.80Q65.60-56.80 66.36-56.04L66.36-56.04L66.36-56.04Q67.12-55.28 67.12-54.16L67.12-54.16L67.12-54.16Q67.12-53.04 66.32-52.24L66.32-52.24L66.32-52.24Q65.52-51.44 64.48-51.44L64.48-51.44" fill="#15212b" stroke="none" stroke-width="none" transform="translate(-245.52001953125,20.307200927734375)" style="fill: rgb(32, 70, 81);"></path></g><g class="path" style="transform: rotate(0deg); transform-origin: -181.12px 0.2672px; animation: 1.33333s linear -0.691429s infinite normal forwards running spin-9300ba11-1e16-4dfa-9581-be6797ee8f8c;"><path d="M62.16 0L62.16-40.08L66.64-40.08L66.64 0L62.16 0" fill="#15212b" stroke="none" stroke-width="none" transform="translate(-245.52001953125,20.307200927734375)" style="fill: rgb(36, 112, 116);"></path></g><g class="path" style="transform: rotate(0deg); transform-origin: -156.24px 0.307201px; animation: 1.33333s linear -0.628571s infinite normal forwards running spin-9300ba11-1e16-4dfa-9581-be6797ee8f8c;"><path d="M102.16-0.48L102.16-0.48Q97.20 0.80 92.56 0.80L92.56 0.80L92.56 0.80Q88.24 0.80 85.36-0.16L85.36-0.16L85.36-0.16Q80.64-1.76 78.52-5.08L78.52-5.08L78.52-5.08Q76.40-8.40 76.40-14.40L76.40-14.40L76.40-24.64L76.40-24.64Q76.40-32.56 80.56-36.68L80.56-36.68L80.56-36.68Q84.72-40.80 91.28-40.80L91.28-40.80L91.28-40.80Q96.48-40.80 102.00-38.24L102.00-38.24L100.72-34.96L100.72-34.96Q96.16-36.80 91.92-36.80L91.92-36.80L91.92-36.80Q86.96-36.80 83.92-33.96L83.92-33.96L83.92-33.96Q80.88-31.12 80.88-25.12L80.88-25.12L80.88-13.52L80.88-13.52Q80.88-8 84.20-5.52L84.20-5.52L84.20-5.52Q87.52-3.04 93.04-3.04L93.04-3.04L93.04-3.04Q96.64-3.04 101.20-4.08L101.20-4.08L102.16-0.48" fill="#15212b" stroke="none" stroke-width="none" transform="translate(-245.52001953125,20.307200927734375)" style="fill: rgb(48, 157, 142);"></path></g><g class="path" style="transform: rotate(0deg); transform-origin: -121.48px -7.6928px; animation: 1.33333s linear -0.565714s infinite normal forwards running spin-9300ba11-1e16-4dfa-9581-be6797ee8f8c;"><path d="M134.40 0L134.40-27.44L134.40-27.44Q134.40-32.32 131.56-34.52L131.56-34.52L131.56-34.52Q128.72-36.72 124.24-36.72L124.24-36.72L124.24-36.72Q121.52-36.72 118.72-35.96L118.72-35.96L118.72-35.96Q115.92-35.20 113.76-34L113.76-34L113.76 0L109.28 0L109.28-56L113.76-56L113.76-37.92L113.76-37.92Q115.76-39.28 118.56-40.04L118.56-40.04L118.56-40.04Q121.36-40.80 124.40-40.80L124.40-40.80L124.40-40.80Q128.56-40.80 132-39.28L132-39.28L132-39.28Q135.20-37.84 137-34.96L137-34.96L137-34.96Q138.80-32.08 138.80-27.68L138.80-27.68L138.80 0L134.40 0" fill="#15212b" stroke="none" stroke-width="none" transform="translate(-245.52001953125,20.307200927734375)" style="fill: rgb(85, 200, 157);"></path></g><g class="path" style="transform: rotate(0deg); transform-origin: -83.56px 0.387201px; animation: 1.33333s linear -0.502857s infinite normal forwards running spin-9300ba11-1e16-4dfa-9581-be6797ee8f8c;"><path d="M177.36 0L177.36 0Q168.72 0.88 164.88 0.88L164.88 0.88L164.88 0.88Q156.48 0.88 151.52-2.24L151.52-2.24L151.52-2.24Q146.56-5.36 146.56-13.52L146.56-13.52L146.56-20.16L146.56-20.16Q146.56-28.08 152.08-30.80L152.08-30.80L152.08-30.80Q154.72-32.16 158.80-32.16L158.80-32.16L158.80-32.16Q162.56-32.16 166.40-30.92L166.40-30.92L166.40-30.92Q170.24-29.68 172.88-27.68L172.88-27.68L172.88-27.68Q172.88-32.08 170.32-34.68L170.32-34.68L170.32-34.68Q167.76-37.28 160.48-37.28L160.48-37.28L160.72-40.72L160.72-40.72Q168.40-40.72 172.04-38.28L172.04-38.28L172.04-38.28Q175.68-35.84 176.52-32.48L176.52-32.48L176.52-32.48Q177.36-29.12 177.36-23.84L177.36-23.84L177.36 0zM172.88-24.24L172.88-24.24Q169.60-25.76 165.88-26.88L165.88-26.88L165.88-26.88Q162.16-28 159.04-28L159.04-28L159.04-28Q150.96-28 150.96-19.92L150.96-19.92L150.96-12.96L150.96-12.96Q150.96-7.76 154.56-5.40L154.56-5.40L154.56-5.40Q158.16-3.04 164.80-3.04L164.80-3.04L164.80-3.04Q168.24-3.04 172.88-3.68L172.88-3.68L172.88-24.24" fill="#15212b" stroke="none" stroke-width="none" transform="translate(-245.52001953125,20.307200927734375)" style="fill: rgb(141, 249, 162);"></path></g><g class="path" style="transform: rotate(0deg); transform-origin: -48.08px 0.387201px; animation: 1.33333s linear -0.44s infinite normal forwards running spin-9300ba11-1e16-4dfa-9581-be6797ee8f8c;"><path d="M209.84-2.80L209.84-2.80Q206.96-0.96 203.28 0L203.28 0L203.28 0Q199.60 0.96 195.92 0.96L195.92 0.96L195.92 0.96Q190 0.96 186.52-1.96L186.52-1.96L186.52-1.96Q183.04-4.88 183.04-10.72L183.04-10.72L183.04-27.12L183.04-27.12Q183.04-33.60 187.08-37.20L187.08-37.20L187.08-37.20Q191.12-40.80 197.76-40.80L197.76-40.80L197.76-40.80Q204.40-40.80 208.12-37.24L208.12-37.24L208.12-37.24Q211.84-33.68 211.84-27.36L211.84-27.36L211.84-16.96L187.52-15.60L187.52-10.72L187.52-10.72Q187.52-6.88 190-4.96L190-4.96L190-4.96Q192.48-3.04 196.48-3.04L196.48-3.04L196.48-3.04Q202.08-3.04 208.08-6.24L208.08-6.24L209.84-2.80zM207.36-27.92L207.36-27.92Q207.36-32.88 204.24-34.92L204.24-34.92L204.24-34.92Q201.12-36.96 197.68-36.96L197.68-36.96L197.68-36.96Q193.28-36.96 190.40-34.56L190.40-34.56L190.40-34.56Q187.52-32.16 187.52-27.04L187.52-27.04L187.52-20L207.36-20.96L207.36-27.92" fill="#15212b" stroke="none" stroke-width="none" transform="translate(-245.52001953125,20.307200927734375)" style="fill: rgb(21, 33, 43);"></path></g><g class="path" style="transform: rotate(0deg); transform-origin: -22.08px -7.6928px; animation: 1.33333s linear -0.377143s infinite normal forwards running spin-9300ba11-1e16-4dfa-9581-be6797ee8f8c;"><path d="M221.20 0L221.20-56L225.68-56L225.68 0L221.20 0" fill="#15212b" stroke="none" stroke-width="none" transform="translate(-245.52001953125,20.307200927734375)" style="fill: rgb(32, 70, 81);"></path></g><g class="path" style="transform: rotate(0deg); transform-origin: 31px -7.7328px; animation: 1.33333s linear -0.314286s infinite normal forwards running spin-9300ba11-1e16-4dfa-9581-be6797ee8f8c;"><path d="M287.04 0L268.96-27.60L265.12-21.52L265.12 0L260.64 0L260.64-56.08L265.12-56.08L265.12-29.36L283.04-56.08L288.24-56.08L271.84-31.84L292.40 0L287.04 0" fill="#15212b" stroke="none" stroke-width="none" transform="translate(-245.52001953125,20.307200927734375)" style="fill: rgb(36, 112, 116);"></path></g><g class="path" style="transform: rotate(0deg); transform-origin: 65.16px 0.387201px; animation: 1.33333s linear -0.251429s infinite normal forwards running spin-9300ba11-1e16-4dfa-9581-be6797ee8f8c;"><path d="M326.08 0L326.08 0Q317.44 0.88 313.60 0.88L313.60 0.88L313.60 0.88Q305.20 0.88 300.24-2.24L300.24-2.24L300.24-2.24Q295.28-5.36 295.28-13.52L295.28-13.52L295.28-20.16L295.28-20.16Q295.28-28.08 300.80-30.80L300.80-30.80L300.80-30.80Q303.44-32.16 307.52-32.16L307.52-32.16L307.52-32.16Q311.28-32.16 315.12-30.92L315.12-30.92L315.12-30.92Q318.96-29.68 321.60-27.68L321.60-27.68L321.60-27.68Q321.60-32.08 319.04-34.68L319.04-34.68L319.04-34.68Q316.48-37.28 309.20-37.28L309.20-37.28L309.44-40.72L309.44-40.72Q317.12-40.72 320.76-38.28L320.76-38.28L320.76-38.28Q324.40-35.84 325.24-32.48L325.24-32.48L325.24-32.48Q326.08-29.12 326.08-23.84L326.08-23.84L326.08 0zM321.60-24.24L321.60-24.24Q318.32-25.76 314.60-26.88L314.60-26.88L314.60-26.88Q310.88-28 307.76-28L307.76-28L307.76-28Q299.68-28 299.68-19.92L299.68-19.92L299.68-12.96L299.68-12.96Q299.68-7.76 303.28-5.40L303.28-5.40L303.28-5.40Q306.88-3.04 313.52-3.04L313.52-3.04L313.52-3.04Q316.96-3.04 321.60-3.68L321.60-3.68L321.60-24.24" fill="#15212b" stroke="none" stroke-width="none" transform="translate(-245.52001953125,20.307200927734375)" style="fill: rgb(48, 157, 142);"></path></g><g class="path" style="transform: rotate(0deg); transform-origin: 104.36px 0.2672px; animation: 1.33333s linear -0.188571s infinite normal forwards running spin-9300ba11-1e16-4dfa-9581-be6797ee8f8c;"><path d="M335.20 0L335.20-4L357.20-36L335.92-36L335.92-40.08L362.88-40.08L362.88-36.08L340.72-4.08L364.56-4.08L364.56 0L335.20 0" fill="#15212b" stroke="none" stroke-width="none" transform="translate(-245.52001953125,20.307200927734375)" style="fill: rgb(85, 200, 157);"></path></g><g class="path" style="transform: rotate(0deg); transform-origin: 152.88px -0.0927982px; animation: 1.33333s linear -0.125714s infinite normal forwards running spin-9300ba11-1e16-4dfa-9581-be6797ee8f8c;"><path d="M418.96 0L418.96-27.44L418.96-27.44Q418.96-32.24 416.44-34.48L416.44-34.48L416.44-34.48Q413.92-36.72 409.92-36.72L409.92-36.72L409.92-36.72Q406.80-36.72 402.96-35.36L402.96-35.36L400.00-33.92L400.00-33.92Q401.36-31.20 401.36-27.68L401.36-27.68L401.36 0L396.96 0L396.96-27.44L396.96-27.44Q396.96-32.32 394.44-34.52L394.44-34.52L394.44-34.52Q391.92-36.72 387.84-36.72L387.84-36.72L387.84-36.72Q385.36-36.72 382.72-35.96L382.72-35.96L382.72-35.96Q380.08-35.20 377.92-34L377.92-34L377.92 0L373.44 0L373.44-40.08L377.92-40.08L377.52-37.52L377.52-37.52Q382.80-40.64 388.32-40.64L388.32-40.64L388.32-40.64Q391.20-40.64 393.72-39.68L393.72-39.68L393.72-39.68Q396.24-38.72 398.00-36.88L398.00-36.88L398.00-36.88Q399.12-37.52 401.36-38.64L401.36-38.64L401.36-38.64Q406.08-40.80 410.48-40.80L410.48-40.80L410.48-40.80Q416.16-40.80 419.76-37.32L419.76-37.32L419.76-37.32Q423.36-33.84 423.36-27.68L423.36-27.68L423.36 0L418.96 0" fill="#15212b" stroke="none" stroke-width="none" transform="translate(-245.52001953125,20.307200927734375)" style="fill: rgb(141, 249, 162);"></path></g><g class="path" style="transform: rotate(0deg); transform-origin: 198.84px 0.387201px; animation: 1.33333s linear -0.0628571s infinite normal forwards running spin-9300ba11-1e16-4dfa-9581-be6797ee8f8c;"><path d="M459.76 0L459.76 0Q451.12 0.88 447.28 0.88L447.28 0.88L447.28 0.88Q438.88 0.88 433.92-2.24L433.92-2.24L433.92-2.24Q428.96-5.36 428.96-13.52L428.96-13.52L428.96-20.16L428.96-20.16Q428.96-28.08 434.48-30.80L434.48-30.80L434.48-30.80Q437.12-32.16 441.20-32.16L441.20-32.16L441.20-32.16Q444.96-32.16 448.80-30.92L448.80-30.92L448.80-30.92Q452.64-29.68 455.28-27.68L455.28-27.68L455.28-27.68Q455.28-32.08 452.72-34.68L452.72-34.68L452.72-34.68Q450.16-37.28 442.88-37.28L442.88-37.28L443.12-40.72L443.12-40.72Q450.80-40.72 454.44-38.28L454.44-38.28L454.44-38.28Q458.08-35.84 458.92-32.48L458.92-32.48L458.92-32.48Q459.76-29.12 459.76-23.84L459.76-23.84L459.76 0zM455.28-24.24L455.28-24.24Q452.00-25.76 448.28-26.88L448.28-26.88L448.28-26.88Q444.56-28 441.44-28L441.44-28L441.44-28Q433.36-28 433.36-19.92L433.36-19.92L433.36-12.96L433.36-12.96Q433.36-7.76 436.96-5.40L436.96-5.40L436.96-5.40Q440.56-3.04 447.20-3.04L447.20-3.04L447.20-3.04Q450.64-3.04 455.28-3.68L455.28-3.68L455.28-24.24" fill="#15212b" stroke="none" stroke-width="none" transform="translate(-245.52001953125,20.307200927734375)" style="fill: rgb(21, 33, 43);"></path></g><g class="path" style="transform: rotate(0deg); transform-origin: 237px -0.0527992px; animation: 1.33333s linear 0s infinite normal forwards running spin-9300ba11-1e16-4dfa-9581-be6797ee8f8c;"><path d="M492.88 0L492.88-27.44L492.88-27.44Q492.88-32.32 490.04-34.52L490.04-34.52L490.04-34.52Q487.20-36.72 482.72-36.72L482.72-36.72L482.72-36.72Q480.00-36.72 477.20-35.96L477.20-35.96L477.20-35.96Q474.40-35.20 472.24-34L472.24-34L472.24 0L467.76 0L467.76-40.08L472.24-40.08L471.92-37.36L471.92-37.36Q473.84-39.04 476.80-39.88L476.80-39.88L476.80-39.88Q479.76-40.72 482.96-40.72L482.96-40.72L482.96-40.72Q487.36-40.72 490.48-39.28L490.48-39.28L490.48-39.28Q493.68-37.84 495.48-34.96L495.48-34.96L495.48-34.96Q497.28-32.08 497.28-27.68L497.28-27.68L497.28 0L492.88 0" fill="#15212b" stroke="none" stroke-width="none" transform="translate(-245.52001953125,20.307200927734375)" style="fill: rgb(32, 70, 81);"></path></g></g>
</g>
</g>
<style id="spin-9300ba11-1e16-4dfa-9581-be6797ee8f8c" data-anikit="">@keyframes spin-9300ba11-1e16-4dfa-9581-be6797ee8f8c
{
  0% {
    animation-timing-function: cubic-bezier(0.6356,0.0381,0.3644,0.9619);
    transform: rotate(0deg);
  }
  100% {
    transform: rotate(360deg);
  }
}</style></svg>